<?xml version="1.0"?>
<svg xmlns="http://www.w3.org/2000/svg" xmlns:xlink="http://www.w3.org/1999/xlink" version="1" viewBox="0 0 602.16 816">
  <defs>
    <filter id="a" x="-50%" y="-50%" width="200%" height="200%">
      <feGaussianBlur stdDeviation="15"/>
    </filter>
  </defs>
  <path filter="url(#a)" d="M27.33 703.12V-5.5h555.51v708.62l-277.76 92.85" opacity=".3"/>
  <path fill="#FFF" d="M570.33 694l-269.25 90-269.25-90V0h538.5"/>
  <path fill="#FFF" d="M570.33 694l-269.25 90-269.25-90V0h538.5"/>
  <defs>
    <path id="b" d="M100.96-37.27H501.8v518.75H100.96z"/>
  </defs>
  <clipPath id="c">
    <use xlink:href="#b"/>
  </clipPath>
  <g clip-path="url(#c)">
    <defs>
      <path id="d" d="M100.96-37.27H501.8v518.75H100.96z"/>
    </defs>
    <clipPath id="e">
      <use xlink:href="#d"/>
    </clipPath>
    <g clip-path="url(#e)">
      <defs>
        <path id="f" d="M100.26 30.32H501.1v382.8H100.26z"/>
      </defs>
      <clipPath id="g">
        <use xlink:href="#f"/>
      </clipPath>
      <g clip-path="url(#g)">
        <defs>
          <path id="h" d="M100.26 30.32H501.1v382.8H100.26z"/>
        </defs>
        <clipPath id="i">
          <use xlink:href="#h"/>
        </clipPath>
        <path clip-path="url(#i)" fill-rule="evenodd" clip-rule="evenodd" d="M108.11 83.26c-3.15-2.64-5.1-6.48-7.01-10.35.36-.63.74.12 1.17.67 1.98 2.57 4.51 6.39 5.84 9.68m-7.85-6.51c1.42 2.03 2.92 3.98 3.51 6.85-1.74-.44-2.31-2.03-3.51-3.01v-3.84zm10.19 17.2h.33c3.04 2.24 5.36 5.49 7.68 8.68.72.98 1.81 1.98 1.67 3.34-2.73-1.14-4.32-3.44-6.35-6.01-1.45-1.86-3.1-3.61-3.33-6.01m4.84 13.19c-2.23-.51-4.54-2.76-6.35-4.84-1.28-1.48-3.56-4.52-4.18-6.51-.16-.51-.3-1.23 0-1.67h.33c2.56 1.15 4.3 3.71 6.01 5.85 1.69 2.08 4 4.25 4.19 7.17m.34-12.52c.27-.05.29.16.5.17 2.94 3.29 6.13 6.34 8.18 10.52-3.75-2.49-6.22-6.25-8.68-10.02v-.67zm-15.37 1.33c2.14 1.48 3.88 3.73 5.68 6.01 1.62 2.06 3.94 4.36 3.51 7.18-2.42-.12-3.84-1.89-5.18-3.17-1.45-1.39-2.78-2.9-4.01-4.51v-5.51zm0 9.86c1.25 1.57 2.91 3.5 2.51 6.18-.74.57-1.6.14-2.51 0v-6.18zm32.4 9.02c.14-.03.16.07.17.17 2.08 1.22 3.69 3.02 5.34 4.68 1.65 1.65 3.68 3.09 4.68 5.34-4.25-2.32-7.3-5.84-10.19-9.52v-.67zm-4.67.16h.5c2.14 1.5 4.15 3.21 6.01 5.01 1.8 1.74 3.68 3.67 4.84 6.01-1.53.06-2.51-1.22-3.51-2-2.96-2.31-5.83-4.92-7.85-8.35v-.67zm9.01.5c1.62 1.06 3.14 2.88 4.68 4.34 1.36 1.29 2.99 2.46 3.84 4.18-1.69-1.11-3.27-2.43-4.68-3.84-1.39-1.4-2.85-2.88-3.84-4.68m-2 12.2c-1.47.08-2.72-.99-3.84-1.84-3.26-2.46-6.63-5.58-8.52-9.52-.12-.46.33-.34.33-.67h.5c3.57 2.26 6.65 5.32 9.52 8.52.87.96 2.23 2.05 2.01 3.51m-4.84 2.33c-1.67.5-3.17-.77-4.51-1.67-2.55-1.71-4.55-3.54-6.68-6.18-1.1-1.36-2.78-3.43-1.84-4.84 2.81.46 5.64 3.46 7.68 5.34 1.08 1 2.26 2.07 3.17 3.17 1.01 1.22 2.13 2.57 2.18 4.18m-6.02 3.34c-1.9.84-3.77-.43-5.18-1.34-1.46-.94-2.71-2.16-3.84-3.17-2.31-2.06-5.49-4.71-5.18-8.52.27 0 .4-.41.83-.33 2.94.49 5.64 3.14 8.02 5.51 2.42 2.42 5.61 4.82 5.35 7.85m-7.18 4.85c-1.97 1.19-3.99-.06-5.51-.83-3.29-1.68-5.54-3.75-7.85-6.85-.85-1.13-4.13-5.79-.67-6.35.05-.01.12 0 .17 0 3.6.39 6.07 3.16 8.68 5.51 2.7 2.43 5.49 5.01 5.18 8.52m38.58-5.35c3.86 2.21 7.12 5.02 10.35 7.85-1.15.05-1.94-.91-2.84-1.5-2.59-1.72-5.58-3.75-7.51-6.35m-3.5.17c.14-.03.16.07.17.17 2.1.76 4.21 2.72 6.18 4.18 1.99 1.47 4.12 2.92 5.34 4.84-2.5-.75-4.49-2.41-6.35-3.84-1.89-1.46-3.71-2.96-5.34-4.68v-.67zm-51.78.33c2.72 1.38 8.95 7.36 8.18 10.86-.67 3.03-6.64.86-8.18-.17v-10.69zm47.77.51h.33c3.72 1.85 6.92 4.32 10.02 7.02.92.8 2.28 1.61 2.51 3.01-2.52-.6-4.8-2.39-7.01-4.01-2.13-1.56-4.89-3.65-5.85-6.02m9.52 12.02c-2.82-.16-5.4-2.21-7.85-4.01-2.26-1.65-5.26-3.96-6.18-6.51.13-.09.27-.17.5-.17 4.18 1.73 7.56 4.49 10.86 7.35 1 .87 2.43 1.85 2.67 3.34m-4.01 2.84c-3.22.17-6.07-2.08-8.69-4.01-2.24-1.65-5.95-4.08-6.35-7.18.14-.03.17-.17.33-.17 2.86.41 6.41 3.09 8.52 4.68 1.21.91 2.43 2.01 3.51 3.01 1.13 1.03 2.64 2.02 2.68 3.67m341.05-8.52c-1.62 1.41-3.98 2.38-6.35 3.34-1.41.57-2.88 1.34-4.51 1.5 3.13-2.1 7.06-3.41 10.86-4.84m6.51 0v1.5c-3.21 1.58-6.54 3.04-10.52 3.84 1-1.35 2.85-2.11 4.51-2.84 1.98-.86 3.99-1.86 6.01-2.5M148.7 152.4c-2.88.83-5.67-1.1-7.68-2.34-2.23-1.36-4.34-3-6.01-4.68-.94-1.24-2.77-2.45-2.34-4.51 1.54-.87 3.74.58 5.51 1.67 1.38.85 2.93 1.75 4.18 2.67 2.76 2.07 5.69 4.47 6.34 7.19m352.4-8.35v1.34c-.39.34-1.12.44-1.67.17.15-.91.88-1.24 1.67-1.51m-375.62 1.51c2.69-1.35 6.03 1.15 8.68 2.84 2.4 1.53 4.61 3.18 6.01 4.68.89 1.23 2.8 2.32 2.34 4.34-1.38 1.64-4.04.22-5.68-.5-3.58-1.57-6.7-3.34-9.19-6.18-1.16-1.34-2.55-3.17-2.16-5.18m50.94 2.84c0-.16.2-.13.33-.17 1.99 1.03 4.17 2.11 6.18 3.34 1.94 1.19 4.11 2.36 5.34 3.84-4.53-1.75-8.29-4.28-11.85-7.01m-2.67.66h.5c2.29 1.08 4.52 2.42 6.68 3.67s4.41 2.51 6.01 4.34c-5.25-1.54-9.06-4.53-13.03-7.35.03-.29-.2-.34-.16-.66m-3.18 1.34h.33c2.81.85 5.28 2.42 7.68 3.84 2.3 1.36 4.85 2.74 6.51 4.84-2.79-.28-5.38-1.91-7.85-3.34-1.03-.6-2.33-1.33-3.51-2.17-1.29-.93-2.63-1.89-3.16-3.17m-35.24 13.86c-1.44 2.02-4.29 1-6.18.33-4.16-1.46-6.98-3.07-9.85-6.18-1.19-1.29-5.07-6.48-.67-7.01.05-.01.12-.01.17 0 3.78.42 7.12 2.28 10.19 4.51 2.9 2.12 6.16 4.6 6.34 8.35m47.27-2.5c-3.3-.56-6.17-2.06-8.68-3.51-2.55-1.46-4.94-3.22-6.85-5.34v-.5c.14-.03.17-.17.33-.17 4.39 1.26 8.65 4.12 12.19 6.51 1.19.8 2.86 1.47 3.01 3.01m300.13-9.02c-.8 1.45-2.62 2.05-4.18 2.67-4.63 1.85-10.15 3.89-15.53 4.51.78-1.26 2.6-1.89 4.18-2.5 1.54-.6 3.23-1.12 4.84-1.67 3.38-1.16 6.87-2.62 9.86-3.17.2-.05.35.2.83.16m10.86-.17c.17 1.13-1.08 1.61-1.84 2-2.41 1.26-5.37 2.24-8.18 3.17-3.73 1.23-7.78 3.07-12.03 2.84 1.05-1.42 2.97-1.98 4.68-2.67 1.69-.69 3.54-1.38 5.34-2 3.82-1.33 7.63-2.75 12.03-3.34m-21.55.84c-2.1 1.66-5.01 2.72-7.85 3.67-2.83.96-5.88 1.98-8.85 2.17 4.62-2.78 10.56-4.24 16.2-6.01.13.09.27.17.5.17m29.06.33v2.67c-3.05 1.27-6.19 2.34-9.52 3.34-3.24.97-6.65 2.46-10.52 2.17.69-1.62 2.63-2.17 4.18-2.84 4.9-2.11 10.5-3.82 15.86-5.34m-40.58 1c-3.18 1.77-6.98 2.93-11.02 3.84 3.28-1.67 6.83-3.07 11.02-3.84m-280.93 10.19c-3.36.22-6.4-1.77-9.35-3.51-2.42-1.43-6.4-3.43-7.18-6.18-.03-.14.06-.16.17-.17.13-.03.17-.17.33-.17 4.44 1.26 9.47 4.03 13.19 6.68 1.18.85 2.81 1.89 2.84 3.35m-3.5 4.01c-1.71 1.04-3.9.04-5.68-.67-3.39-1.35-6.27-2.8-9.19-5.18-1.27-1.04-3.44-2.87-2.84-4.18.09-.19.37-.35.67-.33 3.14.16 6.66 2.27 9.69 4.01 1.4.8 2.9 1.75 4.18 2.67 1.39 1.02 2.87 2.24 3.17 3.68m325.01-10.36v3.67c-2.88.7-6.53 2.17-9.85 1.34 2.12-2.82 6.31-3.59 9.85-5.01m-392.49 1.84c.93-.15 2.62-.11 4.18.33 4.4 1.26 10 5.14 12.19 8.35.8 1.17 1.36 2.9 1.17 3.84-.49 2.37-3.47 2.76-6.51 2.17-2.44-.47-4.72-1.73-6.35-2.67-1.84-1.06-3.44-2.22-5.01-4.01-1.7-1.92-4.5-7.22.33-8.01m92.7 0c3.95 1.06 8.14 3.32 11.86 5.18-4.14-.87-8.2-3.27-11.86-5.18m-1.67.84c4.82 1.63 9.2 3.71 13.36 6.01-2.45-.04-4.71-1.37-6.85-2.34-2.2-1-4.46-1.9-6.18-3.34-.28.06-.32-.13-.33-.33m-2.01 1.5c-.03-.14.07-.16.17-.17 2.54.52 5.31 2.03 7.85 3.17 2.51 1.13 5.19 1.97 6.68 3.67-5.77-1.35-10.61-3.63-14.7-6.67m-45.09 1.17c4.4-.89 8.53 1.9 11.86 3.84 1.3.76 2.76 1.72 4.01 2.67 1.12.86 3.25 2.55 3.01 3.67-.39 1.83-4.49.67-6.01.17-3.71-1.24-7.43-3.21-10.19-5.51-1.32-1.09-3.13-2.68-2.68-4.84m43.09.5c4.14.92 8.89 3.23 12.69 5.18 1.23.63 2.84 1.08 3.17 2.34-6.26-1.26-11.21-3.83-15.7-6.85-.13-.15-.18-.38-.16-.67m241.84.67c-.61 1.1-2.18 1.29-3.34 1.67-3.5 1.15-8.02 2.35-12.03 2.67.75-.85 2.05-.99 3.17-1.34 3.17-.97 7.04-2.3 10.52-2.84.5-.08.83.16 1.34-.17h.34zm9.18.33c-.96 1.05-2.55 1.54-4.01 2-4.37 1.38-9.56 2.63-14.36 3.01.99-1.16 2.68-1.39 4.18-1.84 1.45-.43 3.01-.92 4.51-1.34 3.11-.85 6.38-1.94 9.68-1.83m-19.37.17c.74.39-.6.47-.67.5-2.42 1.1-6.33 1.89-9.35 2.34 3-1.29 6.59-1.99 10.02-2.84m28.73.33c-.11.83-1.17 1.22-1.84 1.5-2.24.95-5.07 1.64-7.68 2.34-3.5.94-7.32 1.91-11.02 1.84.83-1.31 2.68-1.51 4.17-2 3.02-.99 6.14-1.85 9.69-2.67 2.27-.53 4.19-1.34 6.68-1.01m-245.85 8.85c-3.38-.05-6.68-1.54-9.52-2.84-2.82-1.29-5.94-2.51-7.52-5.01 2.65.08 7.05 1.96 9.69 3.17 1.42.65 2.74 1.49 4.01 2.17 1.4.76 3.21 1.17 3.34 2.51m255.87-7.85c-.19.92-1.26 1.32-2 1.67-2.35 1.11-5.35 1.93-8.18 2.67-3.85 1.01-8.06 1.95-12.53 2-.09-.89 1.08-1.25 1.67-1.5 2.27-.98 4.98-1.62 7.68-2.34 4.3-1.14 8.71-2.6 13.36-2.5m10.19 2.01c-2.56 2.81-6.96 3.46-11.02 4.51-4.11 1.06-8.63 2.37-13.36 1.84.81-1.79 3.27-2.06 5.18-2.67 3.9-1.26 7.86-2.46 12.36-3.34 2.16-.43 4.62-1.1 6.84-.34m-249.69.67c3.56.67 7.59 2.31 11.19 3.51-3.78-.46-7.69-2.23-11.19-3.51m-18.04 8.85c-3.79.25-7.38-1.35-10.35-2.67-1.5-.67-2.92-1.49-4.34-2.34-1.31-.79-3.14-1.52-3.51-3.17.13.03.47-.38.84-.33 4.09.53 10.28 3.55 14.03 5.51 1.47.77 3.13 1.66 3.33 3m-61.63-8.18c1.85-.42 4.36.54 6.35 1.34 1.65.66 3.5 1.4 5.18 2.34 2.27 1.27 7.82 4.88 7.18 7.35-.5 1.92-4.11 1.41-6.35.84-4.31-1.1-7.8-2.86-10.86-5.51-1.43-1.26-5.38-5.48-1.5-6.36m78.66.33c4.32.8 9 2.69 13.19 4.18-2.39.1-4.64-.92-6.85-1.67-2.18-.75-4.48-1.39-6.34-2.51m261.39 1c-.79 2-3.21 2.49-5.18 3.17-4.07 1.41-8.39 2.67-13.19 3.34-2.41.34-5.07.71-7.35-.17.73-1.61 2.9-2.22 4.68-2.84 5.04-1.75 12.15-3.47 18.04-4.01 1.25-.1 2.05-.37 3 .51m-262.22.5c0-.16.2-.13.33-.17 5.19 1.27 9.99 2.93 14.53 4.84-2.59.06-5.25-.86-7.68-1.67-2.57-.84-5-1.82-7.18-3m-124.43.34c5.1 1 10.99 4.47 13.36 8.35.66 1.09 1.32 2.96 1.17 4.18-.69 5.49-11.38 3.66-14.53 1.84v-14.37zm123.59 1.5c0-.16.2-.13.33-.17 4.34.79 8.34 2.27 12.36 3.67 1.15.4 2.67.71 3.34 1.84-6.2-.91-11.46-2.78-16.03-5.34m180.55-.17c-3.93 1.75-9.06 2.29-14.2 2.84 1.91-1.03 4.32-1.38 6.68-1.84 2.38-.45 4.95-.87 7.52-1m-198.25 9.02c-.5 1.08-1.96.64-2.84.5-4.96-.76-8.95-2.8-12.86-5.18-1.69-1.03-3.63-1.79-3.67-3.67.12-.16.3-.25.5-.33 4.1.11 7.78 1.96 11.19 3.51 1.52.69 3.14 1.36 4.51 2.17 1.27.75 2.85 1.61 3.17 3m206.1-8.52c-.73 1.23-2.46 1.18-3.84 1.5-3.84.9-8.9 2.09-13.36 2 2.04-1.29 4.78-1.49 7.35-2 3.19-.63 6.26-1.35 9.85-1.5m86.01 1.01c.23 1.26-.99 1.84-1.84 2.34-2.65 1.56-6.48 2.39-10.02 3.17-2.34.52-4.9 1.04-7.52 1.34-2.58.29-5.46.95-7.68-.33.31-1.87 2.57-2.37 4.34-3.01 4.96-1.79 12.06-3.59 17.7-4.18 1.87-.2 3.76-.4 5.02.67m-78 .16c-2.03 1.46-4.95 1.94-7.85 2.5-3.63.71-7.38 1.45-11.52 1.17.28-.77 1.34-.65 2-.83 4.32-1.21 11.09-2.59 16.03-3.01.49-.03.66-.17 1.34.17m-180.04 6.52c-6.47-.38-12.23-2.91-17.2-5.34.03-.19-.04-.3-.17-.33.07-.15.15-.3.33-.33 4.43.69 9.3 2.52 13.36 4.01 1.34.47 2.94.77 3.68 1.99m188.23-5.18c-.62 1.45-2.86 1.6-4.51 2-4.81 1.19-10.81 2.6-16.7 2.17 1.11-1.21 3.04-1.47 4.68-1.84 5.05-1.14 10.83-2.41 16.53-2.33m-177.04.33c4.09.37 8.67 1.69 12.69 2.67-4.38-.07-8.77-1.57-12.69-2.67m.17 1.51c0-.16.2-.13.33-.17 5.02.77 9.69 1.89 14.2 3.17-1.12.39-2.48.07-3.67-.17-3.49-.67-7.62-1.71-10.86-2.83m185.55.33c-1.91 1.97-5.33 2.33-8.52 3.01-4.48.94-9.36 2-14.53 1.17 2.28-1.65 5.59-2.18 8.85-2.84 3.26-.65 6.81-1.21 10.19-1.5 1.33-.12 2.78-.5 4.01.16m-196.91 6.35c-3.61.2-6.97-.95-10.02-2s-6.12-2.1-8.52-3.84v-.5c.14-.03.17-.17.33-.17 5.04.73 10.26 2.49 14.53 4.18 1.38.53 3.17.94 3.68 2.33m-100.54-6.18c3.53-.22 8.31 1.85 11.52 3.67 1.74.99 7.73 4.61 7.18 7.85-.31 1.82-2.91 2.23-5.85 2-5.25-.4-12-3.89-14.7-7.18-.78-.96-2.01-2.68-1.5-4.51.44-1.55 1.52-1.72 3.35-1.83m224.13-.17c.12.45-.79-.12-.67.33-1.77-.1-2.98.36-4.68.33 1.6-.41 3.45-.56 5.35-.66m-180.21.5c1.57-.49 4.38.59 6.18 1.17 3.5 1.12 6.33 2.34 9.85 4.51 1.47.9 3.85 2.26 3.51 3.51-.21.77-1.6.94-3.17.83-3.68-.25-6.99-1.67-10.19-3.17-1.55-.73-2.71-1.44-4.18-2.5-1.1-.79-3.45-2.2-3.17-3.51.16-.78.44-.61 1.17-.84m188.9 0c-3.66 1.07-8.01 1.45-12.69 1.5 3.75-.98 8.09-1.36 12.69-1.5m128.6.5v6.01c-4.19.94-9.92 2.03-14.7 2-1.52-.01-3.51-.03-4.51-1.17.1-1.75 1.89-2.43 3.34-3.01 4.72-1.86 10.69-3.04 15.87-3.83m-249.19.17c4.65.86 10.01 1.58 14.53 3.01.51.16 1.22.32 1.5.84-2.85-.02-5.69-.58-8.35-1.17-2.49-.55-5.29-1.11-7.18-2.17-.16-.1-.57.06-.5-.51m27.23.17c-.03-.36.59-.08.84-.17.02.36-.6.08-.84.17m1.83 0c-.36.51-1.07-.2 0 0m98.21 0c-.41.9-1.63.68-2.5.83-3.71.66-8.77 1.49-13.2 1.17 1.81-.93 4.15-.91 6.35-1.17 3.03-.36 6.02-.83 9.35-.83m-97.71.33c-.03-.36.59-.08.84-.17.03.37-.59.08-.84.17m1.17.17c-.03-.36.59-.08.84-.17.03.36-.59.08-.84.17m6.18 1.5c-2.78.45-7.57-.58-10.52-1.17-.88-.18-.54-.18.17-.17 2.46.06 7.04 1.07 10.35 1.34m157.17-.67c-.2 1.44-2.3 1.84-4.01 2.34-4.6 1.33-11.56 2.64-16.87 2.67-1.18.01-2.41-.04-3.34-.67.77-1.25 2.55-1.59 4.18-2 5.2-1.33 11.36-2.36 17.37-2.67.72-.04 1.78-.29 2.67.33m-60.13 0c-.53 1.03-1.87.82-2.84 1-4.49.85-9.39 1.53-15.2 1.34.79-1 2.33-.83 3.51-1 4.47-.66 9.69-1.59 14.53-1.34m-145.97 7.69c-3.74.66-7.8-.86-11.19-2-2.6-.88-5.04-1.75-7.18-3.17-.56-.37-1.77-.67-1.34-1.67 4.72-.01 11.41 2.36 15.87 4.18 1.55.61 3.37 1.2 3.84 2.66m12.19-7.02h.33c4.61.47 9.04 1.55 13.36 2.67 1.35.35 2.89.44 3.84 1.5-6.25-.04-12.2-1.82-17.2-3.67-.2-.07-.34-.21-.33-.5m26.05.17c3.89.02 8.91.45 12.86 1.34.36.08 1.07-.05 1.17.5-5.13-.16-9.59-.99-14.03-1.84m63.64-.17c-1.21.56-2.91.6-4.51.67-2.05.09-4.12-.07-6.18 0 3.04-.75 7.11-.46 10.69-.67m-37.58.33c1.74-.34 6.92-.02 8.35.33-2.98.09-5.63-.15-8.35-.33m88.52.67c-.51 1.01-1.92 1.12-3.01 1.34-5.01 1-10.87 1.54-16.87 1.17.78-.98 2.34-.98 3.51-1.17 5.04-.83 10.83-1.58 16.37-1.34m-44.93.34c-1.82.6-4.45.72-7.01.84-2.2.1-4.68.27-6.51 0-.21-.03-.88-.02-1-.5 4.66-.17 9.47-.81 14.52-.34m-43.26.16c4.59-.37 9.13.03 13.2.5-4.37.48-9.24 0-13.2-.5m-9.18 2.18c-1.23.6-2.83.31-4.17.17-3.84-.4-8.17-.99-11.52-2-.3.05-.34-.16-.17-.17 5.14.14 11.04.97 15.86 2m160.17-.67c-.19 1.56-2.02 2.19-3.51 2.67-4.27 1.38-10.46 2.27-15.7 2.51-2.16.1-4.97.36-6.52-.83 2.01-2.37 6.01-2.66 9.69-3.34 3.76-.69 7.74-1.25 11.53-1.5 1.5-.12 3.27-.49 4.51.49m-184.39 4.17c-7.01.04-13.6-1.76-18.71-4.18-.1-.15-.2-.3 0-.33.13-.03.17-.17.33-.17 4.66.65 9.94 1.57 14.53 2.84 1.36.38 3.04.74 3.85 1.84m82-4.51c-.55.94-2.05.73-3.17.83-3.57.33-10.05.67-13.53 0 2.3-.63 5.14-.7 8.02-.83 2.86-.13 6.12-.2 8.68 0m-40.08.17c2.09.21 4.71.23 7.01.5.65.08 1.56-.25 1.84.5-3.72.46-12.75-.26-14.87-.67-.13-.02-.82-.3-.33-.33 2.03-.15 4.11.11 6.35 0m86.85.5c-1.69 1.42-4.54 1.61-7.35 2-4.29.6-9.78 1.22-14.36.5.63-.94 2.08-1.13 3.17-1.34 3.73-.69 8.02-1.03 12.19-1.34 2.12-.14 4.38-.48 6.35.18m-101.71 2.84c-6.08.16-12.46-.77-17.37-2.34.07-.15.15-.3.33-.33 4.09.27 9.07.86 13.36 1.5 1.26.19 2.87.19 3.68 1.17m-121.26-1.17c.43-.51 1.19-.97 2.17-1 4.29-.13 7.22 1.39 11.69 3.34 1.78.78 3.43 1.46 5.01 2.5 2.38 1.58 5.69 5.09.5 5.34-3.4.17-6.83-.97-10.19-2.34-2.93-1.19-6.23-2.98-7.85-4.68-.74-.76-1.4-1.85-1.33-3.16m181.72-.33c-2.39 1.29-6.14 1.01-9.69 1.17-2.76.12-6.34.23-9.02-.33 2.57-1.14 6.17-.84 9.69-1 3.05-.15 6.35-.51 9.02.16m-119.42 7.18c-1.81 1.28-4.17.4-6.18 0-4.13-.83-7.74-1.89-11.19-3.67-1.51-.78-3.66-1.54-3.67-3.34.23-.23.9-.38 1.67-.33 3.25.21 7.13 1.51 10.69 2.67 3.53 1.15 7.37 2.46 8.68 4.67m86.85-6.35c-1.36.69-4.51.61-7.01.5-3.61-.16-7.49-.41-10.19-1.17-.03-.14.07-.16.17-.17 5.54-.25 12.1-.08 17.03.84m-53.61 5.35c-3.84.54-7.48-.58-10.86-1.34-3.36-.75-6.85-1.38-9.19-3.34 1.4-.9 3.96-.09 6.35.33 3.26.57 6.72 1.22 9.85 2.17 1.52.46 3.4.93 3.85 2.18m134.61-4.68c-1.4 1.59-4.24 1.78-6.85 2.17-2.57.38-5.37.71-8.02.83-2.8.13-5.93.31-8.18-.67 1.79-1.46 4.67-1.45 7.35-1.84 2.72-.39 5.55-.63 8.35-.84 2.43-.16 5.25-.57 7.35.35m-105.89 2.67c-5.38.37-10.86-.39-15.7-1.5-1.14-.26-2.55-.35-3.17-1.34h.33c4.08-.07 10.29.78 14.7 1.5 1.37.23 3.06.26 3.84 1.34m199.92-2.5v6.51c-3.03-.03-6.24.12-7.68-1.5.14-3.72 5.15-3.88 7.68-5.01m-136.78.67c-1.82.99-4.69 1.21-7.52 1.34-4.39.2-9.43.25-12.86-.67 2.46-1.1 5.98-.85 9.35-1 3.82-.19 7.89-.59 11.03.33m-33.91 1c-5.63.96-13.34.28-18.87-.84-.03-.19.04-.3.17-.33.13-.03.17-.17.33-.17 5.05-.07 10.3.07 15.03.5 1.14.11 2.61-.08 3.34.84m135.28 0c-.33 2.17-3 2.75-5.18 3.34-4.47 1.21-9.53 1.78-15.03 2-2.54.1-5.66.21-7.02-1.34.52-1.48 2.29-1.89 3.84-2.34 4.39-1.26 10.32-2.14 15.7-2.51 2.54-.16 5.87-.67 7.69.85m-336.7.83c4.78-.78 9.69 1.26 13.53 3.67 2.55 1.6 7.23 4.71 6.35 8.52-.37 1.61-2.48 2.6-4.51 2.84-.85.1-2.54.08-3.67 0-3.29-.24-6.86-1.35-10.19-3.51-2.73-1.77-6.59-5.23-5.51-8.85.42-1.44 1.98-2.34 4-2.67m175.2 2.84c-1.34 1.2-3.44.61-5.18.5-5.22-.33-10.83-1.09-14.86-2.67-.09-.13-.17-.27-.17-.5.13-.03.17-.17.33-.17 7.36.22 14.22.93 19.88 2.84m65.8-2c-.54 1.15-2.13.99-3.34 1.17-5.28.77-13.55 1.14-18.37-.33 2.92-1.71 7.53-.96 11.69-1.34 2.99-.27 7.35-.29 10.02.5m44.76 0c-.9 1.94-3.95 2.11-6.51 2.51-4.34.67-9.35 1.18-14.53.83-1.16-.08-2.5-.12-3.17-1 .6-1.02 2.1-1.25 3.34-1.5 3.68-.75 8.48-1.06 12.86-1.34 2.72-.18 5.83-.65 8.01.5m-80 .83c-1.97 1.28-6.87.91-10.19.67-2.11-.16-4.35-.24-6.35-.5-1.47-.19-3.09-.22-3.84-1.17.13-.09.27-.17.5-.17 6.66-.3 14.46-.31 19.88 1.17m-61.13 4.34c-.62 1.08-2.94.73-4.01.67-4.58-.28-9.87-1.66-13.86-3.17-1.33-.51-2.98-1.01-3.34-2.34.31-.36 1.64-.4 2.67-.33 3.05.21 6.56 1.22 9.85 2 3.48.83 7.08 1.32 8.69 3.17m-35.74 3.35c-1.69 1.32-4.4.88-6.68.5-4.38-.72-8.08-2.18-11.69-4.01-1.01-.51-6.72-3.61-3.01-4.51.36-.09 1.1-.04 1.67 0 3.65.25 7.3 1.5 11.02 2.84 3.54 1.27 7.58 2.38 8.69 5.18m68.98-2.51c-.78.99-3.4.75-5.18.67-2.87-.13-5.92-.69-8.69-1.17-2.88-.5-5.71-.92-7.52-2.34 1.24-1.09 4.33-.61 7.01-.33 3.57.37 7.08 1 10.36 1.67 1.59.32 3.38.34 4.02 1.5m32.24-1.84c-.57.79-1.73.91-2.67 1-2.23.21-4.97.11-7.52 0-4.36-.19-8.91-.6-11.52-2 2.41-1.02 5.95-.8 9.02-.67 4.59.21 9.45.43 12.69 1.67m36.74-.67c-.17 1.32-2.37 1.29-4.18 1.5-3.01.36-6.72.66-10.36.5-3.14-.14-6.4-.15-8.35-1.34 1.75-1.43 5.3-1.18 8.02-1.5 3.32-.4 7.56-.16 10.86 0 1.48.08 2.98.2 4.01.84m71.82 5.02c.94-2.64 4.84-3.07 8.18-3.67 3.66-.66 7.71-1.31 11.02-1.5 2.37-.14 9.21-.48 9.69 1.5.56 2.35-3.75 3.22-5.51 3.67-4.67 1.2-10.17 2.09-16.2 1.84-2.79-.12-5.81-.19-7.18-1.84m-275.42-4.85c.31-.07 1.93-.25 3.01-.17 3.59.27 7.6 1.6 11.19 3.34 2.45 1.19 7.8 4.11 7.35 7.01-.46 2.97-7.36 1.98-10.19 1.34-3.95-.9-7.45-2.56-10.52-5.01-1.37-1.1-3.33-2.71-3.17-4.51.13-1.51 1.43-1.8 2.33-2m250.7 1c-.64 1.9-3.44 2.24-5.84 2.67-4.27.76-10 1.12-15.2.84-1.66-.09-3.69-.16-4.68-1.34.45-1.41 2.13-1.37 3.51-1.67 3.77-.81 8.85-1.29 13.53-1.5 3.12-.14 6.48-.54 8.68 1m-148.31 6.02c-.56 1.11-2.03.84-3.01.83-5.52-.02-11.06-1.57-15.37-3.17-1.76-.65-3.93-1.27-4.34-3.01.52-.43 1.6-.57 2.84-.5 4.92.25 11.36 1.98 15.87 3.51 1.66.56 3.55.89 4.01 2.34m68.97-2.34c-2.1 1.63-6.86 1.35-11.02 1.17-4.49-.2-9.24-.83-11.86-2.34.26-.99 1.42-.74 2.17-.83 4.75-.61 9.81.02 14.53.5 2.35.24 4.84.15 6.18 1.5m38.59-.34c-.69 1.46-2.71 1.45-4.51 1.67-4.92.6-11.34.62-16.37-.17-1.26-.2-2.73-.14-3.34-1.17.54-.98 2-1.17 3.17-1.34 4.92-.72 10.89-.62 16.03-.33 1.84.11 3.99.18 5.02 1.34m-72.32 2.84c-1.26.97-3.33.91-5.01.84-4.84-.21-10.24-1.1-14.36-2.34-1.32-.4-3.18-.62-3.51-2 .73-.64 2.79-.58 4.51-.5 3.06.13 6.71.61 10.02 1.17 3.35.56 6.97 1.03 8.35 2.83m-96.2-2.84c1.87-.38 4.85.14 7.01.67 4.18 1.02 7.12 1.86 11.19 4.01 1.73.92 4.17 2.02 3.84 3.67-.28 1.38-3.47 1.49-5.84 1.34-4.75-.32-11.11-2.49-15.03-5.01-1.23-.79-3.28-1.98-3.01-3.51.18-1.04.79-.95 1.84-1.17m217.95 2.68c-.26 1.73-2.22 2.11-3.84 2.51-4.85 1.19-11.38 1.44-16.87 1.17-2.52-.12-5.19-.38-6.68-1.84.9-2.01 3.92-2.29 6.51-2.67 4.95-.74 10-1.07 15.53-.67 2.11.15 4.38.02 5.35 1.5m-83.34 2.67c-.56 1.34-2.4 1.36-3.84 1.5-4.56.44-9.13.02-13.53-.67-2.72-.43-5.54-.77-7.01-2.17.49-1.39 2.2-1.07 3.51-1.17 1.5-.12 2.96-.08 4.68 0 5.82.27 12.8.16 16.19 2.51m-72.99 4.17c-.95 1.29-3.89 1.13-6.18 1-4.97-.28-10.51-1.88-14.7-3.84-1.18-.55-5.23-2.43-2.5-3.51.65-.26 2.73-.26 4.17-.17 3.19.21 7.09 1.19 10.69 2.17 3.54.98 7.53 1.85 8.52 4.35m203.6-6.34c2.32 0 9.07-.01 9.35 2.5.26 2.32-3.7 3.45-5.85 4.01-5.47 1.42-11.23 1.72-17.7 1.17-2.77-.23-6.99-.63-7.18-2.51-.28-2.76 6.33-3.71 9.02-4.18 4.17-.71 8.13-.98 12.36-.99m-90.02 2.34c-.41 1.22-2.01 1.58-3.34 1.84-3.99.76-9.63.8-14.53.33-3.12-.3-6.33-.59-8.02-2 .95-2.11 5.4-1.84 8.19-2.17 2.88-.35 6.55-.03 9.69.17 3.18.19 6.65.06 8.01 1.83m-76.33 3c-.11.97-1.22 1.07-1.84 1.17-1.7.27-3.9.09-5.85 0-2.94-.13-6.3-.68-9.19-1.34-3-.68-5.92-1.59-7.35-3.17.99-1.71 3.94-1.17 6.35-1 4.58.33 8.83.97 13.03 2 1.97.49 4.17.8 4.85 2.34m-195.24-1.5c4.09-.46 9.33 1.01 12.69 3.01 2.83 1.68 7.05 4.88 6.68 9.02-.36 4-5.93 5.81-11.52 5.35-5.28-.44-12.38-4.07-14.2-8.35-2.15-5.09 1.39-8.47 6.35-9.03m47.76.67c5.06-.7 10.2.93 14.53 3.17 2.63 1.36 7.57 4.23 7.01 7.68-.37 2.29-3.52 3.16-6.68 3.17-6.57.02-14.23-3.09-17.37-6.85-.69-.82-1.87-2.42-1.67-4.18.23-1.98 1.96-2.69 4.18-2.99m259.21.5c3.81-.25 9.35-.49 13.53.5 1.25.3 2.87.84 3.01 1.67.32 1.99-3.8 2.99-5.68 3.34-5.42 1-11.36 1.03-17.04.33-2.25-.27-6.28-.94-6.35-2.51-.07-1.69 3.44-2.34 5.18-2.67 2.75-.51 5.04-.51 7.35-.66m-93.02.33c4.37-.34 9.14-.04 14.03.67 2.2.32 7.58.99 7.68 2.5.11 1.54-3.76 1.9-6.01 2-5.95.26-9.72-.34-14.36-1.34-1.55-.33-5.4-1.22-5.34-2.51.05-1.37 2.65-1.21 4-1.32m-121.76 1c5.22-.96 10.67.97 15.2 2.84 2.54 1.05 8.27 3.29 7.85 6.18-.2 1.39-2.49 2.06-4.51 2.17-4.65.26-8.47-.86-12.69-2.51-1.74-.68-3.52-1.4-5.18-2.51-1.38-.92-3.37-2.63-3.17-4.34.15-1.37 1.37-1.62 2.5-1.83m167.02.34c4.99-.29 10.86-.09 15.53.83 2.17.43 3.56.71 3.67 1.67.24 1.94-3.69 2.29-5.85 2.51-5.66.55-10.38.34-15.53-.5-2.04-.33-5.85-.89-6.01-2.17-.29-2.24 6.23-2.23 8.19-2.34m-83.68.83c3.62-.34 9.05.48 12.69 1.17 1.7.32 9.87 1.78 9.69 4.01-.12 1.57-4.33 1.76-6.68 1.67-6.05-.23-9.21-.92-14.03-2.5-1.05-.35-5.28-1.54-5.01-3.17.2-1.18 1.78-1.03 3.34-1.18m-40.92.17c.3-.05 1.93-.22 3.01-.17 5.39.27 11.96 1.89 16.7 4.01 1.73.77 3.79 2.03 3.67 3.17-.14 1.34-3.12 1.83-5.18 1.84-5.36.03-12.33-1.6-17.04-4.01-1.32-.68-3.69-2.16-3.51-3.51.17-1.15 1.22-1.14 2.35-1.33m233.16 2.51c3.42-.16 15.1-.22 15.53 3.67.3 2.7-3.5 3.87-6.18 4.51-6.17 1.47-12.68 1.71-19.54.5-2.46-.43-6.89-1.28-7.01-3.51-.14-2.55 5.2-3.82 6.85-4.18 3.62-.77 6.57-.82 10.35-.99m-148.15 2.17c3.19 0 8.51.29 11.86.83 2.28.37 9.09 1.28 9.02 3.51-.05 1.54-3.42 2.04-5.18 2.17-6.37.46-12.86-.52-18.04-2.17-1.76-.56-4.21-1.21-4.18-2.51.06-1.97 4.78-1.83 6.52-1.83m93.7 1.5c2.88-.2 8.5-.17 11.53.17 2.48.27 8.1.95 8.35 3.17.28 2.45-3.8 3.25-6.18 3.67-5.95 1.05-12.46.9-18.21-.17-2.29-.42-6.38-1.48-6.51-3.17-.16-1.95 2.93-2.51 4.34-2.84 2.51-.58 4.35-.67 6.68-.83m-48.94.67c3.38-.2 8.73-.1 12.19.33 2.53.32 8.96 1.05 9.02 3.34.06 2.17-4.85 2.84-7.18 3.01-6.12.44-13.11-.06-18.21-1.67-1.64-.52-3.93-1.53-3.84-2.67.17-2 5.91-2.22 8.02-2.34m-88.18 1.33c4.13-.52 9.53.27 13.86 1.17 2.21.46 10.29 2.28 10.19 4.84-.05 1.34-2.5 2.02-4.34 2.17-6.62.55-13.91-1.07-19.04-3.17-1.56-.64-4.16-1.78-4.01-3.34.14-1.42 1.96-1.49 3.34-1.67m-42.09 1.67c6.43-.44 13.99 1.62 19.04 4.18 2.06 1.04 4.03 2.31 4.01 3.67-.03 1.74-2.61 2.49-4.51 2.67-5.1.48-9.73-.71-13.7-2-1.99-.65-3.7-1.28-5.51-2.34-1.26-.73-3.82-2.14-3.67-4.01.16-2.06 2.82-2.06 4.34-2.17m-45.26 1.01c4.45-.21 9.59 1.22 13.19 2.67 2.92 1.18 8.92 3.57 8.52 7.35-.26 2.45-4.19 3.3-7.18 3.34-6.6.09-13.32-2.32-17.37-5.68-.94-.78-3.18-2.59-2.84-4.84.36-2.35 3.29-2.73 5.68-2.84m-49.94 1.83c4.16-.45 9.38.83 13.36 2.84 3.14 1.59 7.8 4.58 7.52 8.52-.27 3.67-4.69 4.92-8.52 5.18-6.64.44-13.9-2.32-17.37-6.35-1.17-1.35-2.45-3.42-2-5.85.49-2.7 3.57-3.97 7.01-4.34m183.22 1.01c3.74-.26 9.09.2 13.36 1 2.87.54 9.8 1.71 9.69 4.51-.07 1.79-3.42 2.5-5.68 2.67-6.38.49-14.02-.53-19.37-2.67-1.61-.64-4.14-1.83-4.01-3.34.19-2.14 3.83-2.02 6.01-2.17m161.67 2v11.19c-4.38.27-8.74.1-13.03-.84-2.74-.59-9.12-2.1-9.19-5.18-.04-1.65 1.76-2.67 3.34-3.34 4.71-1.98 13.24-2.34 18.88-1.83m-114.57 1.17c3.77-.29 9.46-.23 13.86.5 3 .5 9.77 1.73 9.86 4.51.07 2.37-3.9 3.04-6.85 3.34-6.65.67-12.31.14-18.04-1.5-2.1-.6-6.09-1.87-6.01-4.01.08-2.28 4.73-2.65 7.18-2.84M100.26 247.6v-19.2c8.81-1.44 17.63 2.94 19.87 8.52.62 1.55.67 3.02.33 4.51-1.48 6.67-12.67 8.98-20.2 6.17m339.71-19.37c3.5-.17 8.84.24 12.19.84 2.78.49 8.38 1.6 8.52 4.34.14 2.74-3.98 3.7-6.68 4.18-6.84 1.21-13.73.42-19.54-1.17-2.5-.69-6.68-1.91-6.68-4.18 0-1.98 3.02-2.95 4.68-3.34 2.61-.61 5-.55 7.51-.67m-144.47 1.34c4.27-.33 10.06.5 14.03 1.5 2.33.59 9.85 2.79 9.69 5.85-.16 3.05-6.74 3.06-10.69 2.84-4.94-.27-11.17-1.93-15.37-4.34-1.3-.75-3.16-1.88-3.01-3.51.22-2.35 3.65-2.21 5.35-2.34m-46.43 4c4.58-.39 10.3.81 14.2 2.17 2.38.83 9.41 3.48 9.19 7.01-.17 2.68-4.4 3.55-7.68 3.67-6.45.24-14.05-1.86-18.54-5.18-1.36-1.01-3.35-2.58-3.01-4.84.33-2.16 3.09-2.59 5.84-2.83m94.03 2.51c4.22-.27 9.74.28 14.2 1.34 3.1.74 9.81 2.42 9.69 5.68-.11 2.87-5.78 3.5-9.35 3.51-6.21.02-13.2-1.45-18.04-4.01-1.53-.81-3.75-1.84-3.51-3.84.29-2.41 4.2-2.5 7.01-2.68m-144.97 2c6.03-.69 11.31.85 16.03 3.17 2.9 1.43 7.28 4.16 7.01 7.68-.29 3.95-6.71 5.4-12.19 5.01-5.82-.42-12.69-3.28-15.53-6.51-.89-1.01-2.35-3.11-1.84-5.51.5-2.28 3.51-3.49 6.52-3.84m195.91 2.34c4.01-.26 9.79.3 14.03 1.34 3.24.79 9.68 2.34 9.69 5.68 0 2.58-4.04 3.64-7.18 4.01-3.79.44-7.67.06-10.52-.33-2.84-.4-6.23-1.12-9.02-2.17-2.16-.81-6.38-2.35-6.35-4.84.05-3.07 5.88-3.46 9.35-3.69m51.28 2.51c4.56-.39 10.96-.04 15.7 1 3.54.77 10.29 2.72 10.35 6.35.06 3.44-5.45 4.74-9.19 5.01-7.58.55-16.22-.85-21.88-3.67-1.76-.88-4.03-2.63-4.01-4.34.05-3.32 5.77-4.07 9.03-4.35m-149.48.33c4.95-.39 10.64.75 14.7 2 2.79.87 9.85 3.02 9.52 7.01-.23 2.79-4.17 3.41-7.52 3.67-3.8.3-7.45-.27-10.02-.83-2.29-.5-5.64-1.69-8.18-3.01-1.83-.95-5.67-2.64-5.18-5.68.44-2.69 3.97-2.95 6.68-3.16m205.26.17v12.36c-2.25-.44-4.11-1.08-6.18-2.17-1.62-.85-4-2.36-4.18-4.34-.4-4.5 6.03-5.08 10.36-5.85m-358.08 1.33c5.49-.66 10.87.89 14.53 3.01 3.19 1.84 7.56 4.99 6.35 10.19-.51 2.17-2.45 3.92-4.18 4.84-7.48 4.01-21.13 1.25-25.05-5.68-1.72-3.03-1.38-6.86.84-9.19 1.25-1.31 3.75-2.71 7.51-3.17m102.71 5.68c4.33-.3 9.96.67 14.53 2.51 3.2 1.29 8.72 4.44 8.52 8.18-.24 4.47-7.4 5.55-13.03 5.18-5.43-.36-11.12-2.47-14.36-4.84-1.64-1.2-4.21-3.28-4.01-6.35.23-3.52 4.26-4.39 8.35-4.68m101.38.5c7.45-.21 15.03 1.37 20.21 4.51 2.03 1.23 3.76 2.42 3.67 4.51-.12 3.03-4.6 4.11-7.85 4.34-8.2.6-16.04-1.61-21.21-4.84-1.63-1.02-3.96-2.42-3.84-4.68.18-3.53 5.53-3.74 9.02-3.84m50.94 6.18c5.51-.45 12.03.36 16.54 1.67 3.51 1.02 10.59 3.51 10.52 7.68-.05 3.13-4.13 4.42-7.68 4.84-4.13.49-8.5-.11-11.53-.67-4.21-.78-10.26-2.58-13.53-5.34-.96-.81-2.37-2.37-2.34-3.84.09-3.52 5.01-4.09 8.02-4.34m-207.77 2.34c4.28-.29 9.81.91 13.86 3.01 3.29 1.7 7.57 4.97 7.35 9.19-.25 4.74-6.04 7.26-10.86 7.68-1.15.1-3.02.1-4.51 0-4.09-.28-9.81-2.21-13.03-5.01-1.92-1.67-4.61-4.98-3.67-8.52 1.09-4.11 4.99-5.94 10.86-6.35m106.23 1.67c4.64-.05 10.12.92 14.53 2.67 3.3 1.31 9.13 4.14 8.68 8.52-.39 3.84-6.09 5.05-10.35 5.18-6.66.2-13.93-1.96-18.37-5.01-1.76-1.21-4.81-3.6-4.51-6.68.35-3.66 5.42-4.63 10.02-4.68m157.49.67c7.37-.65 14.34.64 20.04 2.84 3.5 1.35 8.7 3.78 8.35 7.85-.57 6.66-14.46 5.6-20.54 4.34-4.64-.96-10.79-2.77-14.36-5.85-1.04-.89-2.44-2.62-2.34-4.34.21-3.74 5.38-4.53 8.85-4.84m-106.22 8.69c5.41-.44 11.78.7 16.54 2.51 3.74 1.42 10.13 4.32 10.02 8.85-.09 3.86-5.06 5.53-9.35 5.85-8.55.62-18.14-2.62-22.55-6.35-1.4-1.18-3.83-3.23-3.34-6.35.49-3.14 4.77-4.19 8.68-4.51m-221.13 2.33c6.6-.71 13.57 1.69 17.04 5.34 1.97 2.08 3.65 5.85 2.51 9.69-3.43 11.51-26.74 13.56-32.57 2.17-1.2-2.34-1.54-6.27-.33-9.02 1.93-4.41 6.72-7.47 13.35-8.18m112.4 0c6.55-.54 14.57 1.7 18.87 4.84 2.59 1.9 5.59 5.38 4.34 9.19-.51 1.55-1.96 3.18-3.34 4.01-6.58 3.95-19.33 1.94-25.55-2.84-2.32-1.78-5.38-5.3-4.51-9.19.88-3.9 5.05-5.58 10.19-6.01m165.85 5.85c4.58-.32 10.06.54 14.53 2 4.15 1.36 8.18 3.05 10.69 5.68 1.22 1.28 2.45 3.51 2.17 5.51-.65 4.72-7.76 5.85-13.86 5.51-7.57-.42-15.74-3.34-20.54-7.68-1.38-1.24-3.56-3.48-3.01-6.35.65-3.41 6.06-4.4 10.02-4.67m-112.07 6.18c4.4-.33 10.21.82 14.53 2.67 3.7 1.58 8.02 4.17 9.52 7.52 3.32 7.4-5.47 10.99-12.36 11.02-8.22.04-16.72-3.68-20.38-8.02-1.56-1.85-3.15-5.43-2-8.18 1.36-3.26 5.48-4.63 10.69-5.01m171.86 1.34c9.22-.59 19.94 2.73 25.72 7.68 2.1 1.8 4.12 4.36 3.67 7.35-.55 3.71-5.22 5.28-9.69 5.68-4.59.41-9.62-.51-13.19-1.5-5.04-1.41-11.42-4.22-14.87-8.18-1.2-1.38-2.54-3.02-2.34-5.34.4-4.3 5.73-5.37 10.7-5.69m-288.44 2c7.62-.67 14.7 2.26 18.21 5.85 2.23 2.28 4.29 6.56 2.5 10.86-5.12 12.3-29.17 10.5-33.9-.83-2.42-5.8.94-11.07 4.68-13.36 2.47-1.53 4.86-2.2 8.51-2.52m172.87 8.02c8.94-.73 18.28 2.72 23.21 7.18 2.18 1.97 4.54 5 3.84 8.52-1.51 7.63-14.26 7.61-21.88 5.51-4.86-1.34-10.98-4.43-14.03-8.52-.97-1.29-2.04-3.14-2-5.34.08-5.24 5.59-6.92 10.86-7.35m-120.09 6.51c7.06-.71 14.02 1.57 18.04 4.51 3.74 2.74 7.83 8.31 4.84 14.2-4.62 9.09-20.55 9.18-29.06 3.67-3.86-2.49-9.24-9.12-6.01-15.53 1.65-3.29 5.77-6.2 12.19-6.85m180.88 4.34c5.86-.45 13.91 1.78 18.87 4.34 4.62 2.39 11.75 7.33 10.19 13.7-1.04 4.25-6.29 6.2-11.36 6.51-10.08.63-20.43-4.47-25.22-9.35-1.68-1.72-4.6-5.33-3.68-9.19.99-4.09 5.89-5.6 11.2-6.01M100.26 341.3v-30.9c8.1-1.92 15.43.37 19.21 4.34 2.77 2.92 4.09 7.07 3.01 11.52-2.19 9-11.84 14.47-22.22 15.04m185.72-24.55c9.73-.95 18.75 2.89 23.22 8.18 2.25 2.67 4.22 6.87 2.5 11.36-1.83 4.78-7.2 7.58-13.19 8.02-9.94.72-19.82-4.32-23.55-11.02-1.17-2.1-2.16-6.38-.83-9.52 1.67-3.98 6.45-6.49 11.85-7.02m215.12 10.69v16.2c-6.33 2.32-13.79 1.03-19.71-1-5.96-2.05-11.37-5.21-14.7-8.85-2.5-2.73-5.61-8.38-2.51-12.19 3.93-4.83 14.38-4.23 21.54-2.17 6.7 1.91 11.95 4.91 15.38 8.01m-344.22-1c9.21-.93 17.04 3.02 20.04 9.02 3.38 6.74-.33 13.69-3.51 16.87-5.91 5.91-18.38 8.93-27.06 4.17-5.84-3.21-10.25-11.64-6.01-19.71 2.12-4.04 4.95-6.61 9.19-8.52 2.04-.92 4.4-1.54 7.35-1.83m190.4 4.17c10.45-1.06 20.09 3.62 25.05 9.19 3.4 3.81 5.81 10.47 1.67 15.53-2.93 3.58-8.32 5.01-13.19 5.01-8.21 0-16.17-3.96-20.71-8.52-2.87-2.88-6.69-8.77-4.51-14.2 1.63-4.05 6.14-6.45 11.69-7.01M214.67 342.8c9.94-.97 17.71 3.52 21.38 9.35 1.89 3 3.04 7.45 1.67 12.03-3.81 12.76-23.31 16.75-34.07 8.18-4.37-3.48-8.75-10.99-5.34-18.87 2.35-5.46 8.7-9.94 16.36-10.69m198.41 2.01c6.4-.59 13.21 1.43 17.87 3.84 5.11 2.64 10.51 6.7 12.86 12.03 1.19 2.69 1.7 6.29.33 9.35-1.95 4.38-7.53 6.83-13.86 6.85-12.11.04-24.31-7.7-28.23-16.2-.94-2.03-1.77-5.87-.83-8.69 1.56-4.69 6.58-6.7 11.86-7.18M276.97 359.5c7.27-.6 12.93 1.74 17.2 4.68 3.84 2.64 8.06 7.01 8.85 13.03 1.48 11.26-8.45 18.87-19.37 18.87-9.39 0-18.25-5.26-21.88-13.19-1.53-3.36-2.19-8.62-.83-12.53 2.09-6.04 8.63-10.25 16.03-10.86m224.13 3.85v30.56c-6.89-.87-12.57-3.34-17.54-6.68-4.77-3.2-9.29-7.57-11.36-12.86-1.46-3.73-1.07-8.21 1-10.69 5.68-6.79 20.71-4.09 27.9-.33m-135.28 49.77H342.6c-7.56-3.98-14.53-10.91-14.87-20.71-.21-6.08 3.36-10.78 7.01-13.03 4.06-2.49 8.75-3 13.19-2.67 11.53.84 22.6 9.62 24.89 19.38 1.94 8.24-2.44 14.22-7 17.03m-225.47 0h-30.56c-2.84-3.34-4.46-7.11-4.01-13.03.53-6.92 4.8-12.92 9.19-16.7 4.69-4.04 11.84-7.11 19.54-6.51 9.62.74 16.53 7.81 16.53 17.04-.01 9.29-5.62 14.94-10.69 19.2m306.64 0h-46.1c-1.99-11.33 5.3-17.54 14.36-18.2 14.25-1.04 27.26 8.9 31.74 18.2m-230.65 0h-44.76c3.7-9.76 12.77-17.63 25.72-16.7 10.24.73 17.09 7.8 19.04 16.7M120.97 96.96c1.31.65 2.25 2.18 3.34 3.51 1.05 1.28 2.29 2.57 3.01 4.01-2.48-2.15-4.47-4.78-6.35-7.52m46.26 42.42c-2.62-1.06-5.23-3.56-7.52-5.51 2.02.9 5.18 3.8 7.52 5.51m12.03 8.68c1.79.41 3.48 1.67 5.18 2.67 1.74 1.03 3.48 2.06 5.01 3.17-3.51-1.17-7.06-3.73-10.19-5.84m4.18.84c1.48.36 3.22 1.9 4.84 2.67-1.47-.37-3.23-1.89-4.84-2.67m20.37 11.19c2.62.78 5.81 2.43 8.52 3.67-2.82-.58-5.87-2.36-8.52-3.67m29.73 10.52c-.92.25-2.18-.6-3.17-.83.24-.21 2.23.63 3.17.83m.67.33c-1.35-.42 1.1.29 0 0m161.34 2.68c-1.99.92-7 1.75-8.69 1.67 2.69-.77 5.67-1.24 8.69-1.67m-141.47 2.84c2.59.41 5 1.02 7.35 1.67.41-.02.28.2 0 .17-2.4-.82-7.28-1.02-9.02-2.17-.61-.42 1.29.15 1.67.33"/>
      </g>
    </g>
  </g>
  <path d="M114.47 619.86h-9.1v5.45h8.83v3.22h-8.83v7.58h9.1v3.22h-12.52v-22.69h12.52v3.22zm17.21.15l-2.78 1.65c-.52-.9-1.01-1.49-1.48-1.76-.49-.31-1.12-.47-1.9-.47-.95 0-1.74.27-2.37.81-.63.53-.94 1.2-.94 2 0 1.11.82 2 2.47 2.68l2.26.93c1.84.75 3.19 1.66 4.04 2.73.85 1.07 1.28 2.39 1.28 3.95 0 2.09-.7 3.82-2.09 5.18-1.4 1.37-3.14 2.06-5.22 2.06-1.97 0-3.6-.58-4.88-1.76-1.26-1.17-2.05-2.82-2.37-4.93l3.47-.76c.16 1.33.43 2.25.82 2.76.71.98 1.73 1.47 3.09 1.47 1.07 0 1.96-.36 2.66-1.07.71-.72 1.06-1.62 1.06-2.72 0-.44-.06-.84-.18-1.21s-.31-.71-.57-1.01c-.26-.31-.6-.6-1.01-.87-.41-.27-.9-.53-1.47-.77l-2.19-.91c-3.11-1.31-4.66-3.23-4.66-5.76 0-1.7.65-3.13 1.96-4.28 1.3-1.16 2.92-1.73 4.86-1.73 2.62-.02 4.67 1.25 6.14 3.79zm21.36-2.16v4.05c-1.98-1.66-4.03-2.49-6.14-2.49-2.33 0-4.3.84-5.89 2.51-1.61 1.67-2.41 3.71-2.41 6.12 0 2.38.8 4.39 2.41 6.03 1.61 1.64 3.58 2.45 5.91 2.45 1.21 0 2.23-.19 3.07-.59.47-.2.96-.46 1.46-.79s1.04-.74 1.59-1.21v4.14c-1.96 1.11-4.02 1.67-6.17 1.67-3.24 0-6.01-1.13-8.3-3.4-2.28-2.28-3.42-5.04-3.42-8.26 0-2.89.96-5.47 2.87-7.73 2.35-2.77 5.39-4.16 9.13-4.16 2.02.01 3.99.56 5.89 1.66zm2.93 10.04c0-3.19 1.17-5.94 3.51-8.23 2.33-2.29 5.13-3.44 8.41-3.44 3.23 0 6.01 1.16 8.32 3.47 2.32 2.31 3.48 5.09 3.48 8.33 0 3.26-1.17 6.03-3.5 8.3-2.34 2.28-5.17 3.42-8.48 3.42-2.93 0-5.56-1.01-7.89-3.04-2.57-2.24-3.85-5.18-3.85-8.81zm3.45.03c0 2.51.84 4.57 2.53 6.18 1.68 1.62 3.61 2.42 5.81 2.42 2.38 0 4.39-.82 6.03-2.47 1.64-1.66 2.46-3.69 2.46-6.08 0-2.42-.81-4.45-2.43-6.08-1.61-1.64-3.6-2.47-5.97-2.47-2.36 0-4.36.82-5.98 2.47-1.64 1.64-2.45 3.64-2.45 6.03zm27.88-11.28v19.47h6.67v3.22h-10.1v-22.69h3.43zm24.4 17.18h-9.71l-2.53 5.51h-3.69L207 615.21l10.83 24.12h-3.75l-2.38-5.51zm-1.4-3.21l-3.37-7.72-3.53 7.72h6.9zm32.74 3.21h-9.72l-2.53 5.51h-3.69l11.23-24.12 10.83 24.12h-3.75l-2.37-5.51zm-1.4-3.21l-3.37-7.72-3.53 7.72h6.9zm10.25 8.73V615.1l16.55 17.31v-15.77h3.42v24.08l-16.55-17.27v15.89h-3.42zm31.55-19.48v19.47h-3.43v-19.47h-5.22v-3.22h13.85v3.22h-5.2zm6.29 8.03c0-3.19 1.17-5.94 3.51-8.23 2.33-2.29 5.13-3.44 8.41-3.44 3.23 0 6.01 1.16 8.32 3.47 2.32 2.31 3.48 5.09 3.48 8.33 0 3.26-1.17 6.03-3.5 8.3-2.34 2.28-5.17 3.42-8.48 3.42-2.93 0-5.56-1.01-7.89-3.04-2.57-2.24-3.85-5.18-3.85-8.81zm3.45.03c0 2.51.84 4.57 2.53 6.18 1.67 1.62 3.61 2.42 5.81 2.42 2.38 0 4.39-.82 6.03-2.47 1.64-1.66 2.45-3.69 2.45-6.08 0-2.42-.81-4.45-2.43-6.08-1.61-1.64-3.6-2.47-5.97-2.47-2.36 0-4.36.82-5.98 2.47-1.63 1.64-2.44 3.64-2.44 6.03zm24.46 11.42V615.1l16.55 17.31v-15.77h3.42v24.08l-16.55-17.27v15.89h-3.42zm28.71-22.7v22.69h-3.43v-22.69h3.43zm27.84 17.18h-9.71l-2.53 5.51h-3.69l11.23-24.12 10.83 24.12h-3.75l-2.38-5.51zm-1.4-3.21l-3.37-7.72-3.53 7.72h6.9zm13.67-13.97v19.47h6.67v3.22h-10.1v-22.69h3.43zm20.47 10.88h9.38v.75c0 1.7-.2 3.21-.6 4.53-.39 1.22-1.05 2.35-1.98 3.41-2.11 2.37-4.79 3.56-8.04 3.56-3.17 0-5.89-1.15-8.16-3.44-2.26-2.3-3.4-5.07-3.4-8.29 0-3.29 1.15-6.09 3.46-8.38 2.3-2.3 5.1-3.45 8.41-3.45 1.77 0 3.43.36 4.97 1.08 1.47.72 2.92 1.89 4.34 3.52l-2.44 2.34c-1.86-2.48-4.13-3.72-6.8-3.72-2.4 0-4.42.83-6.04 2.49-1.63 1.62-2.44 3.66-2.44 6.11 0 2.53.91 4.61 2.72 6.25 1.69 1.52 3.53 2.28 5.51 2.28 1.68 0 3.2-.57 4.54-1.7 1.34-1.14 2.09-2.51 2.25-4.11h-5.66v-3.23zm16.99-10.88v13.66c0 1.95.32 3.38.96 4.27.95 1.3 2.29 1.95 4.01 1.95 1.73 0 3.08-.65 4.03-1.95.64-.87.96-2.29.96-4.27v-13.66h3.42v14.61c0 2.39-.74 4.36-2.23 5.91-1.67 1.72-3.73 2.59-6.17 2.59s-4.5-.86-6.16-2.59c-1.49-1.55-2.23-3.52-2.23-5.91v-14.61h3.41zm31.21 3.22h-9.1v5.45h8.83v3.22h-8.83v7.58h9.1v3.22h-12.52v-22.69h12.52v3.22zm12.07 9.8l7.03 9.67h-4.19l-6.48-9.29h-.62v9.29h-3.42v-22.69h4.01c3 0 5.17.56 6.5 1.69 1.47 1.25 2.2 2.91 2.2 4.97 0 1.61-.46 2.99-1.38 4.15-.93 1.15-2.14 1.89-3.65 2.21zm-4.27-2.6h1.09c3.24 0 4.86-1.24 4.86-3.72 0-2.32-1.58-3.48-4.73-3.48h-1.22v7.2zm12.94.83c0-3.19 1.17-5.94 3.51-8.23 2.33-2.29 5.13-3.44 8.41-3.44 3.23 0 6.01 1.16 8.32 3.47 2.32 2.31 3.48 5.09 3.48 8.33 0 3.26-1.17 6.03-3.5 8.3-2.34 2.28-5.17 3.42-8.48 3.42-2.93 0-5.56-1.01-7.89-3.04-2.57-2.24-3.85-5.18-3.85-8.81zm3.45.03c0 2.51.84 4.57 2.53 6.18 1.68 1.62 3.61 2.42 5.81 2.42 2.38 0 4.39-.82 6.03-2.47 1.64-1.66 2.46-3.69 2.46-6.08 0-2.42-.81-4.45-2.43-6.08-1.61-1.64-3.6-2.47-5.97-2.47-2.36 0-4.35.82-5.98 2.47-1.64 1.64-2.45 3.64-2.45 6.03zm13.62-17.38l-6 4.06-1.63-1.37 4.72-4.73 2.91 2.04z"/>
  <path fill="#009EE0" d="M187.05 459.64h-61.84v37.06h60.04v21.88h-60.04v51.55h61.84V592h-85.11V437.76h85.11v21.88z"/>
  <path fill="#D9007F" d="M307.41 554.54h-66.03L224.2 592h-25.07l76.32-163.92L349.07 592H323.6l-16.19-37.46zm-9.49-21.88l-22.88-52.44-23.98 52.44h46.86z"/>
  <path fill="#FDCF00" d="M459.13 554.54H393.1L375.92 592h-25.07l76.32-163.92L500.79 592h-25.47l-16.19-37.46zm-9.49-21.88l-22.88-52.44-23.97 52.44h46.85z"/>
</svg>
