<?xml version="1.0" encoding="utf-8"?>
<!-- Generator: Adobe Illustrator 17.0.0, SVG Export Plug-In . SVG Version: 6.00 Build 0)  -->
<!DOCTYPE svg PUBLIC "-//W3C//DTD SVG 1.1 Tiny//EN" "http://www.w3.org/Graphics/SVG/1.1/DTD/svg11-tiny.dtd">
<svg version="1.1" baseProfile="tiny" id="Capa_1" xmlns="http://www.w3.org/2000/svg" xmlns:xlink="http://www.w3.org/1999/xlink"
	 x="0px" y="0px" width="90px" height="45px" viewBox="255.998 818.945 90 45" xml:space="preserve">
<g>
	<g>
		<g>
			<g>
				<path d="M266.288,856.913h-1.69v1.012h1.64v0.598h-1.64v1.408h1.69v0.598h-2.325v-4.214h2.325V856.913L266.288,856.913z
					 M269.485,856.94l-0.516,0.306c-0.097-0.167-0.188-0.277-0.275-0.327c-0.091-0.058-0.208-0.087-0.353-0.087
					c-0.176,0-0.323,0.05-0.44,0.15c-0.117,0.098-0.175,0.223-0.175,0.371c0,0.206,0.152,0.371,0.459,0.498l0.42,0.173
					c0.342,0.139,0.592,0.308,0.75,0.507s0.238,0.444,0.238,0.734c0,0.388-0.13,0.709-0.388,0.962
					c-0.26,0.254-0.583,0.383-0.97,0.383c-0.366,0-0.669-0.108-0.906-0.327c-0.234-0.217-0.381-0.524-0.44-0.916l0.644-0.141
					c0.03,0.247,0.08,0.418,0.152,0.513c0.132,0.182,0.321,0.273,0.574,0.273c0.199,0,0.364-0.067,0.494-0.199
					c0.132-0.134,0.197-0.301,0.197-0.505c0-0.082-0.011-0.156-0.033-0.225c-0.022-0.069-0.058-0.132-0.106-0.188
					c-0.048-0.058-0.111-0.111-0.188-0.162c-0.076-0.05-0.167-0.098-0.273-0.143l-0.407-0.169c-0.578-0.243-0.865-0.6-0.865-1.07
					c0-0.316,0.121-0.581,0.364-0.795c0.241-0.215,0.542-0.321,0.903-0.321C268.831,856.233,269.212,856.469,269.485,856.94
					L269.485,856.94z M273.452,856.539v0.752c-0.368-0.308-0.748-0.462-1.14-0.462c-0.433,0-0.799,0.156-1.094,0.466
					c-0.299,0.31-0.448,0.689-0.448,1.137c0,0.442,0.149,0.815,0.448,1.12c0.299,0.305,0.665,0.455,1.098,0.455
					c0.225,0,0.414-0.035,0.57-0.11c0.087-0.037,0.178-0.085,0.271-0.147s0.193-0.137,0.295-0.225v0.769
					c-0.364,0.206-0.747,0.31-1.146,0.31c-0.602,0-1.116-0.21-1.542-0.632c-0.423-0.423-0.635-0.936-0.635-1.534
					c0-0.537,0.178-1.016,0.533-1.436c0.436-0.514,1.001-0.773,1.696-0.773C272.733,856.233,273.099,856.335,273.452,856.539
					L273.452,856.539z M273.996,858.404c0-0.592,0.217-1.103,0.652-1.529c0.433-0.425,0.953-0.639,1.562-0.639
					c0.6,0,1.116,0.215,1.545,0.644c0.431,0.429,0.646,0.945,0.646,1.547c0,0.605-0.217,1.12-0.65,1.542
					c-0.435,0.424-0.96,0.635-1.575,0.635c-0.544,0-1.033-0.188-1.465-0.565C274.234,859.624,273.996,859.078,273.996,858.404z
					 M274.637,858.41c0,0.466,0.156,0.849,0.47,1.148c0.312,0.301,0.67,0.449,1.079,0.449c0.442,0,0.815-0.152,1.12-0.459
					c0.305-0.308,0.457-0.685,0.457-1.129c0-0.449-0.15-0.826-0.451-1.129c-0.299-0.305-0.669-0.459-1.109-0.459
					c-0.438,0-0.81,0.152-1.111,0.459C274.787,857.594,274.637,857.966,274.637,858.41L274.637,858.41z M279.815,856.315v3.616
					h1.239v0.598h-1.876v-4.214H279.815L279.815,856.315z M284.347,859.505h-1.803l-0.47,1.023h-0.685l2.086-4.48l2.011,4.48h-0.696
					L284.347,859.505L284.347,859.505z M284.087,858.909l-0.626-1.434l-0.656,1.434H284.087z M290.168,859.505h-1.805l-0.47,1.023
					h-0.685l2.086-4.48l2.011,4.48h-0.696L290.168,859.505z M289.908,858.909l-0.626-1.434l-0.656,1.434H289.908z M291.811,860.531
					v-4.502l3.074,3.215v-2.929h0.635v4.472l-3.074-3.208v2.951H291.811L291.811,860.531z M297.671,856.913v3.616h-0.637v-3.616
					h-0.969v-0.598h2.572v0.598H297.671z M298.839,858.404c0-0.592,0.217-1.103,0.652-1.529c0.433-0.425,0.953-0.639,1.562-0.639
					c0.6,0,1.116,0.215,1.545,0.644c0.431,0.429,0.646,0.945,0.646,1.547c0,0.605-0.217,1.12-0.65,1.542
					c-0.435,0.424-0.96,0.635-1.575,0.635c-0.544,0-1.033-0.188-1.465-0.565C299.077,859.624,298.839,859.078,298.839,858.404z
					 M299.48,858.41c0,0.466,0.156,0.849,0.47,1.148c0.31,0.301,0.67,0.449,1.079,0.449c0.442,0,0.815-0.152,1.12-0.459
					c0.305-0.308,0.455-0.685,0.455-1.129c0-0.449-0.15-0.826-0.451-1.129c-0.299-0.305-0.669-0.459-1.109-0.459
					c-0.438,0-0.81,0.152-1.111,0.459C299.63,857.594,299.48,857.966,299.48,858.41z M304.023,860.531v-4.502l3.074,3.215v-2.929
					h0.635v4.472l-3.074-3.208v2.951H304.023L304.023,860.531z M309.355,856.315v4.214h-0.637v-4.214H309.355z M314.526,859.505
					h-1.803l-0.47,1.023h-0.685l2.086-4.48l2.011,4.48h-0.696L314.526,859.505z M314.266,858.909l-0.626-1.434l-0.656,1.434H314.266
					z M316.805,856.315v3.616h1.239v0.598h-1.876v-4.214H316.805L316.805,856.315z M320.607,858.335h1.742v0.139
					c0,0.316-0.037,0.596-0.111,0.841c-0.072,0.227-0.195,0.436-0.368,0.633c-0.392,0.44-0.89,0.661-1.493,0.661
					c-0.589,0-1.094-0.214-1.516-0.639c-0.42-0.427-0.631-0.942-0.631-1.54c0-0.611,0.214-1.131,0.643-1.556
					c0.427-0.427,0.947-0.641,1.562-0.641c0.329,0,0.637,0.067,0.923,0.201c0.273,0.134,0.542,0.351,0.806,0.654l-0.453,0.435
					c-0.345-0.461-0.767-0.691-1.263-0.691c-0.446,0-0.821,0.154-1.122,0.462c-0.303,0.301-0.453,0.68-0.453,1.135
					c0,0.47,0.169,0.856,0.505,1.161c0.314,0.282,0.656,0.423,1.023,0.423c0.312,0,0.594-0.106,0.843-0.316
					c0.249-0.212,0.388-0.466,0.418-0.763h-1.051v-0.6L320.607,858.335z M323.762,856.315v2.537c0,0.362,0.059,0.628,0.178,0.793
					c0.176,0.241,0.425,0.362,0.745,0.362c0.321,0,0.572-0.121,0.748-0.362c0.119-0.162,0.178-0.425,0.178-0.793v-2.537h0.635v2.714
					c0,0.444-0.137,0.81-0.414,1.098c-0.31,0.319-0.693,0.481-1.146,0.481c-0.453,0-0.836-0.16-1.144-0.481
					c-0.277-0.288-0.414-0.654-0.414-1.098v-2.714H323.762L323.762,856.315z M329.559,856.913h-1.69v1.012h1.64v0.598h-1.64v1.408
					h1.69v0.598h-2.325v-4.214h2.325V856.913L329.559,856.913z M331.8,858.733l1.306,1.796h-0.778l-1.204-1.725h-0.115v1.725h-0.635
					v-4.214h0.745c0.557,0,0.96,0.104,1.207,0.314c0.273,0.232,0.409,0.54,0.409,0.923c0,0.299-0.085,0.555-0.256,0.771
					C332.306,858.536,332.081,858.673,331.8,858.733z M331.007,858.25h0.202c0.602,0,0.903-0.23,0.903-0.691
					c0-0.431-0.293-0.646-0.879-0.646h-0.227V858.25L331.007,858.25z M333.411,858.404c0-0.592,0.217-1.103,0.652-1.529
					c0.433-0.425,0.953-0.639,1.562-0.639c0.6,0,1.116,0.215,1.545,0.644c0.431,0.429,0.646,0.945,0.646,1.547
					c0,0.605-0.217,1.12-0.65,1.542c-0.435,0.424-0.96,0.635-1.575,0.635c-0.544,0-1.033-0.188-1.465-0.565
					C333.648,859.624,333.411,859.078,333.411,858.404z M334.051,858.41c0,0.466,0.156,0.849,0.47,1.148
					c0.312,0.301,0.67,0.449,1.079,0.449c0.442,0,0.815-0.152,1.12-0.459c0.305-0.308,0.457-0.685,0.457-1.129
					c0-0.449-0.15-0.826-0.451-1.129c-0.299-0.305-0.669-0.459-1.109-0.459c-0.438,0-0.808,0.152-1.111,0.459
					C334.202,857.594,334.051,857.966,334.051,858.41L334.051,858.41z M336.581,855.182l-1.114,0.754l-0.303-0.254l0.877-0.878
					L336.581,855.182z"/>
				<path fill="#009EE0" d="M279.769,827.155h-11.485v6.883h11.151v4.064h-11.151v9.574h11.485v4.062h-15.807v-28.647h15.807
					V827.155z"/>
				<path fill="#D9007F" d="M302.123,844.781h-12.264l-3.191,6.957h-4.656l14.175-30.445l13.673,30.445h-4.73L302.123,844.781z
					 M300.36,840.717l-4.249-9.74l-4.454,9.74H300.36z"/>
				<path fill="#FDCF00" d="M330.302,844.781h-12.264l-3.191,6.957h-4.656l14.175-30.445l13.673,30.445h-4.73L330.302,844.781z
					 M328.539,840.717l-4.249-9.74l-4.452,9.74H328.539z"/>
			</g>
		</g>
	</g>
</g>
</svg>
